<svg width="42" height="42" viewBox="0 0 42 42" fill="none" xmlns="http://www.w3.org/2000/svg">
<g clip-path="url(#clip0_9344_69002)">
<rect width="42" height="42" rx="21" fill="#FBE9E8"/>
<path d="M11.2279 25.0885C12.7592 25.9867 14.6341 25.9867 16.1654 25.0885C19.3364 23.2269 20.3933 21.181 20.3933 19.4268C20.3933 17.546 18.6865 15.9607 16.6808 15.9607C14.6752 15.9607 13.6967 17.3694 13.6967 17.3694C13.6967 17.3694 12.7219 15.9607 10.7125 15.9607C8.70311 15.9607 7 17.5498 7 19.4268C7.00373 21.1772 8.05698 23.2269 11.2279 25.0885Z" fill="#E03E52"/>
<path d="M33.6226 14.6455V22.2148C33.6224 25.8015 31.2783 27.3417 27.8999 27.3418C26.544 27.4267 25.1962 27.0775 24.0522 26.3447V22.624C24.5878 23.0329 25.2467 23.2483 25.9204 23.2344C26.2069 23.2688 26.4976 23.2388 26.771 23.1465C27.0444 23.0541 27.2936 22.9014 27.5005 22.7002C27.7073 22.4991 27.8663 22.254 27.9663 21.9834C28.0662 21.7128 28.105 21.423 28.0786 21.1357V18.3672H24.0522V14.6455H33.6226Z" fill="#1D1B1F"/>
</g>
<defs>
<clipPath id="clip0_9344_69002">
<rect width="42" height="42" rx="21" fill="white"/>
</clipPath>
</defs>
</svg>
